<mxfile host="65bd71144e">
    <diagram id="QJ4-P1B2chKyIl8-WV2o" name="Page-1">
        <mxGraphModel dx="3840" dy="883" grid="1" gridSize="1" guides="1" tooltips="1" connect="1" arrows="1" fold="1" page="1" pageScale="1" pageWidth="850" pageHeight="1100" background="none" math="0" shadow="0">
            <root>
                <mxCell id="0"/>
                <mxCell id="1" parent="0"/>
                <mxCell id="2" value="Account" style="rounded=0;whiteSpace=wrap;html=1;fillColor=#f5f5f5;strokeColor=#666666;fontColor=#333333;verticalAlign=top;" parent="1" vertex="1">
                    <mxGeometry x="-710" y="33" width="112" height="26" as="geometry"/>
                </mxCell>
                <mxCell id="5" value="&lt;div style=&quot;font-size: 13px;&quot;&gt;&lt;span style=&quot;background-color: initial; font-size: 13px;&quot;&gt;+id: int&lt;/span&gt;&lt;/div&gt;+name: str&lt;br style=&quot;font-size: 13px;&quot;&gt;+document: int&lt;br style=&quot;font-size: 13px;&quot;&gt;&lt;div style=&quot;font-size: 13px;&quot;&gt;&lt;span style=&quot;background-color: initial; font-size: 13px;&quot;&gt;+email: str&lt;/span&gt;&lt;/div&gt;+password: int" style="whiteSpace=wrap;html=1;aspect=fixed;fontSize=13;align=left;fillColor=#f5f5f5;fontColor=#333333;strokeColor=#666666;horizontal=1;labelPosition=center;verticalLabelPosition=middle;verticalAlign=top;textDirection=ltr;" parent="1" vertex="1">
                    <mxGeometry x="-711" y="58" width="114" height="114" as="geometry"/>
                </mxCell>
                <mxCell id="6" value="" style="endArrow=classic;html=1;fontSize=13;entryX=0.5;entryY=1;entryDx=0;entryDy=0;" parent="1" target="5" edge="1">
                    <mxGeometry width="50" height="50" relative="1" as="geometry">
                        <mxPoint x="-654" y="241" as="sourcePoint"/>
                        <mxPoint x="-444" y="141" as="targetPoint"/>
                    </mxGeometry>
                </mxCell>
                <mxCell id="8" value="" style="endArrow=none;html=1;fontSize=13;" parent="1" edge="1">
                    <mxGeometry width="50" height="50" relative="1" as="geometry">
                        <mxPoint x="-575" y="243" as="sourcePoint"/>
                        <mxPoint x="-539" y="243" as="targetPoint"/>
                        <Array as="points">
                            <mxPoint x="-778" y="243"/>
                        </Array>
                    </mxGeometry>
                </mxCell>
                <mxCell id="9" value="" style="endArrow=none;html=1;fontSize=13;" parent="1" edge="1">
                    <mxGeometry width="50" height="50" relative="1" as="geometry">
                        <mxPoint x="-540" y="244" as="sourcePoint"/>
                        <mxPoint x="-540" y="286" as="targetPoint"/>
                        <Array as="points">
                            <mxPoint x="-540" y="266"/>
                        </Array>
                    </mxGeometry>
                </mxCell>
                <mxCell id="10" value="User" style="rounded=0;whiteSpace=wrap;html=1;fontSize=13;fillColor=#f5f5f5;fontColor=#333333;strokeColor=#666666;verticalAlign=top;align=center;" parent="1" vertex="1">
                    <mxGeometry x="-811" y="285" width="86" height="31" as="geometry"/>
                </mxCell>
                <mxCell id="11" value="Driver" style="rounded=0;whiteSpace=wrap;html=1;fontSize=13;fillColor=#f5f5f5;fontColor=#333333;strokeColor=#666666;verticalAlign=top;align=center;" parent="1" vertex="1">
                    <mxGeometry x="-586" y="285" width="86" height="31" as="geometry"/>
                </mxCell>
                <mxCell id="12" value="" style="endArrow=none;html=1;fontSize=13;" parent="1" edge="1">
                    <mxGeometry width="50" height="50" relative="1" as="geometry">
                        <mxPoint x="-773" y="244" as="sourcePoint"/>
                        <mxPoint x="-773" y="286" as="targetPoint"/>
                        <Array as="points"/>
                    </mxGeometry>
                </mxCell>
                <mxCell id="13" value="+id: int" style="whiteSpace=wrap;html=1;aspect=fixed;fillColor=#f5f5f5;fontColor=#333333;strokeColor=#666666;align=left;verticalAlign=top;" vertex="1" parent="1">
                    <mxGeometry x="-1219" y="533" width="101" height="101" as="geometry"/>
                </mxCell>
                <mxCell id="14" value="Payments" style="rounded=0;whiteSpace=wrap;html=1;fillColor=#f5f5f5;fontColor=#333333;strokeColor=#666666;" vertex="1" parent="1">
                    <mxGeometry x="-1218" y="504" width="99" height="28" as="geometry"/>
                </mxCell>
                <mxCell id="15" value="Card" style="rounded=0;whiteSpace=wrap;html=1;fillColor=#f5f5f5;fontColor=#333333;strokeColor=#666666;" vertex="1" parent="1">
                    <mxGeometry x="-1418" y="700" width="120" height="30" as="geometry"/>
                </mxCell>
                <mxCell id="16" value="+number: int&lt;br&gt;+cvv: int&lt;br&gt;+date: string" style="whiteSpace=wrap;html=1;aspect=fixed;fillColor=#f5f5f5;fontColor=#333333;strokeColor=#666666;align=left;verticalAlign=top;" vertex="1" parent="1">
                    <mxGeometry x="-1418" y="732" width="120" height="120" as="geometry"/>
                </mxCell>
                <mxCell id="18" value="Paypal" style="rounded=0;whiteSpace=wrap;html=1;fillColor=#f5f5f5;fontColor=#333333;strokeColor=#666666;" vertex="1" parent="1">
                    <mxGeometry x="-1011" y="702" width="120" height="30" as="geometry"/>
                </mxCell>
                <mxCell id="19" value="Cash" style="rounded=0;whiteSpace=wrap;html=1;fillColor=#f5f5f5;fontColor=#333333;strokeColor=#666666;" vertex="1" parent="1">
                    <mxGeometry x="-1188" y="701" width="120" height="30" as="geometry"/>
                </mxCell>
                <mxCell id="22" value="" style="endArrow=classic;html=1;entryX=1;entryY=1;entryDx=0;entryDy=0;exitX=0.5;exitY=0;exitDx=0;exitDy=0;" edge="1" parent="1" source="18" target="13">
                    <mxGeometry width="50" height="50" relative="1" as="geometry">
                        <mxPoint x="-255" y="185" as="sourcePoint"/>
                        <mxPoint x="-205" y="135" as="targetPoint"/>
                    </mxGeometry>
                </mxCell>
                <mxCell id="23" value="" style="endArrow=classic;html=1;entryX=0.75;entryY=1;entryDx=0;entryDy=0;exitX=0.5;exitY=0;exitDx=0;exitDy=0;" edge="1" parent="1" source="19" target="13">
                    <mxGeometry width="50" height="50" relative="1" as="geometry">
                        <mxPoint x="-141" y="193" as="sourcePoint"/>
                        <mxPoint x="-91" y="143" as="targetPoint"/>
                    </mxGeometry>
                </mxCell>
                <mxCell id="25" value="" style="endArrow=classic;html=1;entryX=0.25;entryY=1;entryDx=0;entryDy=0;exitX=0.5;exitY=0;exitDx=0;exitDy=0;" edge="1" parent="1" source="15" target="13">
                    <mxGeometry width="50" height="50" relative="1" as="geometry">
                        <mxPoint x="-427" y="194" as="sourcePoint"/>
                        <mxPoint x="-462" y="151" as="targetPoint"/>
                    </mxGeometry>
                </mxCell>
                <mxCell id="26" value="Car" style="rounded=0;whiteSpace=wrap;html=1;fillColor=#f5f5f5;fontColor=#333333;strokeColor=#666666;" vertex="1" parent="1">
                    <mxGeometry x="-564" y="384" width="166" height="30" as="geometry"/>
                </mxCell>
                <mxCell id="64" value="" style="edgeStyle=none;html=1;" edge="1" parent="1" source="27" target="11">
                    <mxGeometry relative="1" as="geometry"/>
                </mxCell>
                <mxCell id="27" value="+id: int&lt;br&gt;+license: string&lt;br&gt;+driver: driver&lt;br&gt;+passenger: int" style="rounded=0;whiteSpace=wrap;html=1;fillColor=#f5f5f5;fontColor=#333333;strokeColor=#666666;align=left;verticalAlign=top;" vertex="1" parent="1">
                    <mxGeometry x="-564" y="416" width="166" height="71" as="geometry"/>
                </mxCell>
                <mxCell id="28" value="&lt;div style=&quot;&quot;&gt;&lt;span style=&quot;background-color: initial;&quot;&gt;+email: string&lt;/span&gt;&lt;/div&gt;" style="rounded=0;whiteSpace=wrap;html=1;fillColor=#f5f5f5;fontColor=#333333;strokeColor=#666666;align=left;verticalAlign=top;" vertex="1" parent="1">
                    <mxGeometry x="-1011" y="733" width="120" height="39" as="geometry"/>
                </mxCell>
                <mxCell id="29" value="" style="endArrow=classic;html=1;entryX=0.5;entryY=1;entryDx=0;entryDy=0;" edge="1" parent="1" target="27">
                    <mxGeometry width="50" height="50" relative="1" as="geometry">
                        <mxPoint x="-481" y="573" as="sourcePoint"/>
                        <mxPoint x="-440" y="523" as="targetPoint"/>
                    </mxGeometry>
                </mxCell>
                <mxCell id="30" value="" style="endArrow=none;html=1;" edge="1" parent="1">
                    <mxGeometry width="50" height="50" relative="1" as="geometry">
                        <mxPoint x="-663" y="576" as="sourcePoint"/>
                        <mxPoint x="-311" y="573" as="targetPoint"/>
                    </mxGeometry>
                </mxCell>
                <mxCell id="31" value="" style="endArrow=none;html=1;" edge="1" parent="1">
                    <mxGeometry width="50" height="50" relative="1" as="geometry">
                        <mxPoint x="-662" y="635" as="sourcePoint"/>
                        <mxPoint x="-662" y="577" as="targetPoint"/>
                    </mxGeometry>
                </mxCell>
                <mxCell id="32" value="" style="endArrow=none;html=1;" edge="1" parent="1">
                    <mxGeometry width="50" height="50" relative="1" as="geometry">
                        <mxPoint x="-311" y="638" as="sourcePoint"/>
                        <mxPoint x="-311" y="576" as="targetPoint"/>
                    </mxGeometry>
                </mxCell>
                <mxCell id="33" value="CarBasic" style="rounded=0;whiteSpace=wrap;html=1;fillColor=#f5f5f5;fontColor=#333333;strokeColor=#666666;" vertex="1" parent="1">
                    <mxGeometry x="-723" y="640" width="120" height="33" as="geometry"/>
                </mxCell>
                <mxCell id="34" value="CarAdvanced" style="rounded=0;whiteSpace=wrap;html=1;fillColor=#f5f5f5;fontColor=#333333;strokeColor=#666666;" vertex="1" parent="1">
                    <mxGeometry x="-374" y="640" width="260" height="33" as="geometry"/>
                </mxCell>
                <mxCell id="35" value="+brand: string&lt;br&gt;&lt;div style=&quot;&quot;&gt;&lt;span style=&quot;background-color: initial;&quot;&gt;+model: string&lt;/span&gt;&lt;/div&gt;" style="rounded=0;whiteSpace=wrap;html=1;fillColor=#f5f5f5;fontColor=#333333;strokeColor=#666666;verticalAlign=top;align=left;" vertex="1" parent="1">
                    <mxGeometry x="-723" y="675" width="120" height="60" as="geometry"/>
                </mxCell>
                <mxCell id="36" value="+typeCarAccepted: Map&amp;lt;Str.ArrayList&amp;lt;Str.int&amp;gt;&amp;gt;&lt;br&gt;+seatsMatterial: ArrayList&amp;lt;Str&amp;gt; = leather or vinyl" style="rounded=0;whiteSpace=wrap;html=1;fillColor=#f5f5f5;fontColor=#333333;strokeColor=#666666;align=left;verticalAlign=top;" vertex="1" parent="1">
                    <mxGeometry x="-374" y="673" width="260" height="60" as="geometry"/>
                </mxCell>
                <mxCell id="54" value="" style="edgeStyle=none;html=1;" edge="1" parent="1" source="41" target="35">
                    <mxGeometry relative="1" as="geometry"/>
                </mxCell>
                <mxCell id="41" value="UberX" style="rounded=0;whiteSpace=wrap;html=1;align=center;fillColor=#f5f5f5;fontColor=#333333;strokeColor=#666666;" vertex="1" parent="1">
                    <mxGeometry x="-821" y="832" width="120" height="31" as="geometry"/>
                </mxCell>
                <mxCell id="53" value="" style="edgeStyle=none;html=1;" edge="1" parent="1" source="42" target="35">
                    <mxGeometry relative="1" as="geometry"/>
                </mxCell>
                <mxCell id="42" value="UberPool" style="rounded=0;whiteSpace=wrap;html=1;fillColor=#f5f5f5;fontColor=#333333;strokeColor=#666666;" vertex="1" parent="1">
                    <mxGeometry x="-628" y="831" width="120" height="33" as="geometry"/>
                </mxCell>
                <mxCell id="56" value="" style="edgeStyle=none;html=1;" edge="1" parent="1" source="43" target="36">
                    <mxGeometry relative="1" as="geometry"/>
                </mxCell>
                <mxCell id="43" value="UberBlack" style="rounded=0;whiteSpace=wrap;html=1;fillColor=#f5f5f5;fontColor=#333333;strokeColor=#666666;" vertex="1" parent="1">
                    <mxGeometry x="-405" y="833" width="120" height="35" as="geometry"/>
                </mxCell>
                <mxCell id="55" value="" style="edgeStyle=none;html=1;" edge="1" parent="1" source="44" target="36">
                    <mxGeometry relative="1" as="geometry"/>
                </mxCell>
                <mxCell id="44" value="UberVan" style="rounded=0;whiteSpace=wrap;html=1;fillColor=#f5f5f5;fontColor=#333333;strokeColor=#666666;" vertex="1" parent="1">
                    <mxGeometry x="-209" y="832" width="120" height="35" as="geometry"/>
                </mxCell>
                <mxCell id="65" value="Trip" style="rounded=0;whiteSpace=wrap;html=1;fillColor=#f5f5f5;fontColor=#333333;strokeColor=#666666;" vertex="1" parent="1">
                    <mxGeometry x="-916" y="352" width="120" height="30" as="geometry"/>
                </mxCell>
                <mxCell id="66" value="+id: int&lt;br&gt;+user: user&lt;br&gt;+car: car&lt;br&gt;+route: route&lt;br&gt;+amount: double&lt;br&gt;+payment: payment&lt;br&gt;+progress: double&lt;br&gt;+completed: boolean" style="rounded=0;whiteSpace=wrap;html=1;fillColor=#f5f5f5;fontColor=#333333;strokeColor=#666666;align=left;verticalAlign=top;" vertex="1" parent="1">
                    <mxGeometry x="-916" y="383" width="121" height="131" as="geometry"/>
                </mxCell>
                <mxCell id="74" style="edgeStyle=none;html=1;exitX=0.5;exitY=0;exitDx=0;exitDy=0;entryX=0.5;entryY=1;entryDx=0;entryDy=0;" edge="1" parent="1" source="69" target="66">
                    <mxGeometry relative="1" as="geometry"/>
                </mxCell>
                <mxCell id="69" value="Route" style="rounded=0;whiteSpace=wrap;html=1;fillColor=#f5f5f5;fontColor=#333333;strokeColor=#666666;" vertex="1" parent="1">
                    <mxGeometry x="-921" y="577" width="125" height="31" as="geometry"/>
                </mxCell>
                <mxCell id="70" value="+id: int&lt;br&gt;+start: []&lt;br&gt;&lt;div style=&quot;&quot;&gt;&lt;span style=&quot;background-color: initial;&quot;&gt;+end:[]&lt;/span&gt;&lt;/div&gt;" style="rounded=0;whiteSpace=wrap;html=1;fillColor=#f5f5f5;fontColor=#333333;strokeColor=#666666;align=left;verticalAlign=top;" vertex="1" parent="1">
                    <mxGeometry x="-921" y="610" width="123" height="60" as="geometry"/>
                </mxCell>
                <mxCell id="71" value="" style="endArrow=classic;html=1;exitX=0;exitY=0;exitDx=0;exitDy=0;entryX=1;entryY=0;entryDx=0;entryDy=0;" edge="1" parent="1" source="26" target="65">
                    <mxGeometry width="50" height="50" relative="1" as="geometry">
                        <mxPoint x="-809" y="517" as="sourcePoint"/>
                        <mxPoint x="-759" y="467" as="targetPoint"/>
                        <Array as="points"/>
                    </mxGeometry>
                </mxCell>
                <mxCell id="72" value="" style="endArrow=classic;html=1;entryX=0;entryY=0;entryDx=0;entryDy=0;exitX=0.5;exitY=0;exitDx=0;exitDy=0;" edge="1" parent="1" source="14" target="65">
                    <mxGeometry width="50" height="50" relative="1" as="geometry">
                        <mxPoint x="-1074" y="463" as="sourcePoint"/>
                        <mxPoint x="-1024" y="413" as="targetPoint"/>
                    </mxGeometry>
                </mxCell>
                <mxCell id="73" value="" style="endArrow=classic;html=1;entryX=0.5;entryY=1;entryDx=0;entryDy=0;exitX=0.5;exitY=0;exitDx=0;exitDy=0;" edge="1" parent="1" source="65" target="10">
                    <mxGeometry width="50" height="50" relative="1" as="geometry">
                        <mxPoint x="-907" y="349" as="sourcePoint"/>
                        <mxPoint x="-857" y="299" as="targetPoint"/>
                    </mxGeometry>
                </mxCell>
            </root>
        </mxGraphModel>
    </diagram>
</mxfile>